<svg width="20" height="20" viewBox="0 0 20 20" fill="none" xmlns="http://www.w3.org/2000/svg">
<path fill-rule="evenodd" clip-rule="evenodd" d="M16.7498 10C16.7498 10.1989 16.6708 10.3897 16.5302 10.5303C16.3895 10.671 16.1987 10.75 15.9998 10.75H6.30983L9.02983 13.47C9.16231 13.6122 9.23443 13.8002 9.231 13.9945C9.22758 14.1888 9.14886 14.3742 9.01145 14.5116C8.87404 14.649 8.68865 14.7277 8.49435 14.7312C8.30005 14.7346 8.112 14.6625 7.96983 14.53L3.96983 10.53C3.82938 10.3894 3.75049 10.1987 3.75049 10C3.75049 9.80125 3.82938 9.61062 3.96983 9.47L7.96983 5.47C8.112 5.33752 8.30005 5.2654 8.49435 5.26882C8.68865 5.27225 8.87404 5.35096 9.01145 5.48838C9.14886 5.62579 9.22758 5.81118 9.231 6.00548C9.23443 6.19978 9.16231 6.38782 9.02983 6.53L6.30983 9.25H15.9998C16.1987 9.25 16.3895 9.32902 16.5302 9.46967C16.6708 9.61032 16.7498 9.80109 16.7498 10Z" fill="black"/>
</svg>
