<svg width="20" height="20" viewBox="0 0 20 20" fill="none" xmlns="http://www.w3.org/2000/svg">
<path fill-rule="evenodd" clip-rule="evenodd" d="M12.5 10C12.5 10.663 12.2366 11.2989 11.7678 11.7678C11.2989 12.2366 10.663 12.5 10 12.5C9.33696 12.5 8.70107 12.2366 8.23223 11.7678C7.76339 11.2989 7.5 10.663 7.5 10C7.5 9.33696 7.76339 8.70107 8.23223 8.23223C8.70107 7.76339 9.33696 7.5 10 7.5C10.663 7.5 11.2989 7.76339 11.7678 8.23223C12.2366 8.70107 12.5 9.33696 12.5 10ZM11 10C11 10.2652 10.8946 10.5196 10.7071 10.7071C10.5196 10.8946 10.2652 11 10 11C9.73478 11 9.48043 10.8946 9.29289 10.7071C9.10536 10.5196 9 10.2652 9 10C9 9.73478 9.10536 9.48043 9.29289 9.29289C9.48043 9.10536 9.73478 9 10 9C10.2652 9 10.5196 9.10536 10.7071 9.29289C10.8946 9.48043 11 9.73478 11 10Z" fill="black"/>
<path fill-rule="evenodd" clip-rule="evenodd" d="M9.37689 2.5C8.45089 2.5 7.70089 3.25 7.70089 4.176V4.864C7.70089 4.92 7.65789 5.034 7.50289 5.115C7.34989 5.195 7.19989 5.283 7.05489 5.377C6.90789 5.474 6.78689 5.453 6.73689 5.425L6.13689 5.079C5.94629 4.96885 5.73585 4.89733 5.5176 4.86852C5.29935 4.83971 5.07756 4.85419 4.8649 4.91111C4.65225 4.96804 4.45289 5.0663 4.27822 5.20029C4.10354 5.33427 3.95698 5.50136 3.84689 5.692L3.22489 6.772C3.00275 7.15685 2.94253 7.61417 3.05748 8.04341C3.17243 8.47265 3.45314 8.83867 3.83789 9.061L4.48589 9.435C4.53389 9.463 4.60989 9.555 4.60489 9.725C4.59998 9.88 4.60165 10.0351 4.60989 10.19C4.61889 10.365 4.53989 10.46 4.49089 10.489L3.83789 10.866C3.64725 10.9761 3.48016 11.1227 3.34618 11.2973C3.21219 11.472 3.11393 11.6714 3.057 11.884C3.00008 12.0967 2.9856 12.3185 3.01441 12.5367C3.04322 12.755 3.11474 12.9654 3.22489 13.156L3.84789 14.236C3.95798 14.4266 4.10454 14.5937 4.27922 14.7277C4.45389 14.8617 4.65325 14.96 4.8659 15.0169C5.07856 15.0738 5.30035 15.0883 5.5186 15.0595C5.73685 15.0307 5.94729 14.9592 6.13789 14.849L6.83789 14.444C6.88589 14.416 7.00389 14.396 7.14989 14.487C7.26489 14.558 7.38289 14.626 7.50289 14.689C7.65789 14.769 7.70089 14.884 7.70089 14.94V15.751C7.70089 16.677 8.45089 17.427 9.37689 17.427H10.6229C11.5489 17.427 12.2989 16.677 12.2989 15.751V14.941C12.2989 14.884 12.3409 14.77 12.4959 14.689C12.6169 14.626 12.7349 14.559 12.8499 14.487C12.9959 14.396 13.1139 14.417 13.1619 14.444L13.8619 14.849C14.0526 14.9591 14.263 15.0306 14.4813 15.0593C14.6996 15.088 14.9214 15.0735 15.1341 15.0165C15.3468 14.9594 15.5461 14.8611 15.7207 14.727C15.8954 14.5929 16.0419 14.4257 16.1519 14.235L16.7749 13.155C16.997 12.7701 17.0573 12.3128 16.9423 11.8836C16.8273 11.4543 16.5466 11.0883 16.1619 10.866L15.5089 10.489C15.4589 10.46 15.3809 10.366 15.3899 10.189C15.3981 10.0348 15.3997 9.88033 15.3949 9.726C15.3899 9.555 15.4649 9.463 15.5149 9.435L16.1619 9.061C16.3525 8.95091 16.5196 8.80435 16.6536 8.62967C16.7876 8.455 16.8859 8.25564 16.9428 8.04299C16.9997 7.83033 17.0142 7.60854 16.9854 7.39029C16.9566 7.17204 16.885 6.9616 16.7749 6.771L16.1519 5.692C16.0418 5.50136 15.8952 5.33427 15.7206 5.20029C15.5459 5.0663 15.3465 4.96804 15.1339 4.91111C14.9212 4.85419 14.6994 4.83971 14.4812 4.86852C14.2629 4.89733 14.0525 4.96885 13.8619 5.079L13.2619 5.425C13.2129 5.453 13.0919 5.473 12.9439 5.377C12.7988 5.28254 12.6493 5.1951 12.4959 5.115C12.3409 5.034 12.2989 4.92 12.2989 4.864V4.176C12.2989 3.25 11.5489 2.5 10.6229 2.5H9.37689ZM9.20089 4.176C9.20089 4.079 9.27889 4 9.37689 4H10.6229C10.7199 4 10.7989 4.079 10.7989 4.176V4.864C10.7989 5.592 11.2609 6.162 11.8019 6.444C11.9119 6.502 12.0209 6.566 12.1249 6.634C12.6419 6.971 13.3749 7.092 14.0129 6.724L14.6129 6.378C14.6532 6.35476 14.7011 6.34844 14.7461 6.36044C14.7911 6.37243 14.8295 6.40176 14.8529 6.442L15.4759 7.522C15.4991 7.56234 15.5054 7.61024 15.4935 7.65522C15.4815 7.7002 15.4521 7.73859 15.4119 7.762L14.7639 8.136C14.1409 8.496 13.8759 9.17 13.8959 9.774C13.8991 9.88634 13.8977 9.99877 13.8919 10.111C13.8599 10.726 14.1219 11.421 14.7589 11.788L15.4119 12.165C15.4521 12.1884 15.4815 12.2268 15.4935 12.2718C15.5054 12.3168 15.4991 12.3647 15.4759 12.405L14.8529 13.485C14.8296 13.5254 14.7913 13.5549 14.7463 13.5671C14.7013 13.5793 14.6533 13.5732 14.6129 13.55L13.9119 13.145C13.2879 12.785 12.5709 12.894 12.0569 13.214C11.9737 13.2655 11.8887 13.3139 11.8019 13.359C11.2619 13.642 10.7989 14.212 10.7989 14.94V15.751C10.7989 15.7977 10.7803 15.8424 10.7473 15.8755C10.7143 15.9085 10.6696 15.927 10.6229 15.927H9.37689C9.33021 15.927 9.28545 15.9085 9.25244 15.8755C9.21943 15.8424 9.20089 15.7977 9.20089 15.751V14.941C9.20089 14.211 8.73889 13.641 8.19789 13.359C8.11107 13.3136 8.02601 13.2649 7.94289 13.213C7.42889 12.893 6.71289 12.785 6.08789 13.145L5.38789 13.55C5.36782 13.5616 5.34564 13.5692 5.32264 13.5722C5.29964 13.5752 5.27627 13.5737 5.25387 13.5676C5.23148 13.5616 5.2105 13.5512 5.19214 13.537C5.17377 13.5228 5.1584 13.5051 5.14689 13.485L4.52389 12.405C4.50065 12.3647 4.49434 12.3168 4.50633 12.2718C4.51833 12.2268 4.54765 12.1884 4.58789 12.165L5.24089 11.788C5.87789 11.42 6.13989 10.726 6.10789 10.111C6.10179 9.99877 6.10045 9.88634 6.10389 9.774C6.12389 9.17 5.85889 8.496 5.23589 8.136L4.58789 7.762C4.54765 7.73859 4.51833 7.7002 4.50633 7.65522C4.49434 7.61024 4.50065 7.56234 4.52389 7.522L5.14689 6.442C5.1703 6.40176 5.20869 6.37243 5.25367 6.36044C5.29865 6.34844 5.34656 6.35476 5.38689 6.378L5.98689 6.724C6.62489 7.092 7.35689 6.971 7.87489 6.634C7.97941 6.56546 8.0872 6.50205 8.19789 6.444C8.73789 6.162 9.20089 5.592 9.20089 4.864V4.176Z" fill="black"/>
</svg>
